<?xml version="1.0" encoding="UTF-8" standalone="no"?>
<!DOCTYPE svg PUBLIC "-//W3C//DTD SVG 1.1//EN"
 "http://www.w3.org/Graphics/SVG/1.1/DTD/svg11.dtd">
<!-- Generated by graphviz version 2.43.0 (0)
 -->
<!-- Title: %3 Pages: 1 -->
<svg width="327pt" height="338pt"
 viewBox="0.00 0.00 327.09 338.06" xmlns="http://www.w3.org/2000/svg" xmlns:xlink="http://www.w3.org/1999/xlink">
<g id="graph0" class="graph" transform="scale(1 1) rotate(0) translate(28.8 309.26)">
<title>%3</title>
<polygon fill="white" stroke="transparent" points="-28.8,28.8 -28.8,-309.26 298.29,-309.26 298.29,28.8 -28.8,28.8"/>
<text text-anchor="middle" x="134.74" y="-247.66" font-family="Helvetica,sans-Serif" font-size="36.00">bita</text>
<!-- bita -->
<g id="node1" class="node">
<title>bita</title>
<polygon fill="#5397c8" stroke="black" points="107.63,-97.21 107.63,-135.21 161.63,-135.21 161.63,-97.21 107.63,-97.21"/>
<text text-anchor="middle" x="134.63" y="-123.21" font-family="monospace" font-size="10.00">crate</text>
<polyline fill="none" stroke="black" points="107.63,-116.21 161.63,-116.21 "/>
<text text-anchor="middle" x="134.63" y="-104.21" font-family="monospace" font-size="10.00">bita</text>
</g>
<!-- bita::cli -->
<g id="node2" class="node">
<title>bita::cli</title>
<polygon fill="#f8c04c" stroke="black" points="167.8,-48.56 167.8,-86.56 268.8,-86.56 268.8,-48.56 167.8,-48.56"/>
<text text-anchor="middle" x="218.3" y="-74.56" font-family="monospace" font-size="10.00">pub(crate) mod</text>
<polyline fill="none" stroke="black" points="167.8,-67.56 268.8,-67.56 "/>
<text text-anchor="middle" x="218.3" y="-55.56" font-family="monospace" font-size="10.00">cli</text>
</g>
<!-- bita&#45;&gt;bita::cli -->
<g id="edge1" class="edge">
<title>bita&#45;&gt;bita::cli</title>
<path fill="none" stroke="#000000" d="M162.03,-100.28C166.73,-97.54 171.72,-94.64 176.7,-91.75"/>
<polygon fill="#000000" stroke="#000000" points="178.71,-94.63 185.6,-86.58 175.19,-88.58 178.71,-94.63"/>
<text text-anchor="middle" x="181.86" y="-99.01" font-family="monospace" font-size="10.00">owns</text>
</g>
<!-- bita::clone_cmd -->
<g id="node3" class="node">
<title>bita::clone_cmd</title>
<polygon fill="#f8c04c" stroke="black" points="83.94,-0.5 83.94,-38.5 184.94,-38.5 184.94,-0.5 83.94,-0.5"/>
<text text-anchor="middle" x="134.44" y="-26.5" font-family="monospace" font-size="10.00">pub(crate) mod</text>
<polyline fill="none" stroke="black" points="83.94,-19.5 184.94,-19.5 "/>
<text text-anchor="middle" x="134.44" y="-7.5" font-family="monospace" font-size="10.00">clone_cmd</text>
</g>
<!-- bita&#45;&gt;bita::clone_cmd -->
<g id="edge2" class="edge">
<title>bita&#45;&gt;bita::clone_cmd</title>
<path fill="none" stroke="#000000" d="M134.59,-97.1C134.56,-83.33 134.53,-64.48 134.49,-48.81"/>
<polygon fill="#000000" stroke="#000000" points="137.99,-48.56 134.47,-38.57 130.99,-48.57 137.99,-48.56"/>
<text text-anchor="middle" x="122.04" y="-75.95" font-family="monospace" font-size="10.00">owns</text>
</g>
<!-- bita::compress_cmd -->
<g id="node4" class="node">
<title>bita::compress_cmd</title>
<polygon fill="#f8c04c" stroke="black" points="1.21,-146.96 1.21,-184.96 102.21,-184.96 102.21,-146.96 1.21,-146.96"/>
<text text-anchor="middle" x="51.71" y="-172.96" font-family="monospace" font-size="10.00">pub(crate) mod</text>
<polyline fill="none" stroke="black" points="1.21,-165.96 102.21,-165.96 "/>
<text text-anchor="middle" x="51.71" y="-153.96" font-family="monospace" font-size="10.00">compress_cmd</text>
</g>
<!-- bita&#45;&gt;bita::compress_cmd -->
<g id="edge3" class="edge">
<title>bita&#45;&gt;bita::compress_cmd</title>
<path fill="none" stroke="#000000" d="M107.48,-132.5C102.58,-135.44 97.37,-138.56 92.19,-141.67"/>
<polygon fill="#000000" stroke="#000000" points="90.31,-138.72 83.54,-146.86 93.91,-144.72 90.31,-138.72"/>
<text text-anchor="middle" x="87.33" y="-129.08" font-family="monospace" font-size="10.00">owns</text>
</g>
<!-- bita::diff_cmd -->
<g id="node5" class="node">
<title>bita::diff_cmd</title>
<polygon fill="#f8c04c" stroke="black" points="168.49,-144.72 168.49,-182.72 269.49,-182.72 269.49,-144.72 168.49,-144.72"/>
<text text-anchor="middle" x="218.99" y="-170.72" font-family="monospace" font-size="10.00">pub(crate) mod</text>
<polyline fill="none" stroke="black" points="168.49,-163.72 269.49,-163.72 "/>
<text text-anchor="middle" x="218.99" y="-151.72" font-family="monospace" font-size="10.00">diff_cmd</text>
</g>
<!-- bita&#45;&gt;bita::diff_cmd -->
<g id="edge4" class="edge">
<title>bita&#45;&gt;bita::diff_cmd</title>
<path fill="none" stroke="#000000" d="M161.79,-131.5C166.42,-134.11 171.34,-136.88 176.26,-139.65"/>
<polygon fill="#000000" stroke="#000000" points="174.65,-142.76 185.08,-144.62 178.08,-136.66 174.65,-142.76"/>
<text text-anchor="middle" x="181.52" y="-127.58" font-family="monospace" font-size="10.00">owns</text>
</g>
<!-- bita::info_cmd -->
<g id="node6" class="node">
<title>bita::info_cmd</title>
<polygon fill="#f8c04c" stroke="black" points="85.81,-193.96 85.81,-231.96 186.81,-231.96 186.81,-193.96 85.81,-193.96"/>
<text text-anchor="middle" x="136.31" y="-219.96" font-family="monospace" font-size="10.00">pub(crate) mod</text>
<polyline fill="none" stroke="black" points="85.81,-212.96 186.81,-212.96 "/>
<text text-anchor="middle" x="136.31" y="-200.96" font-family="monospace" font-size="10.00">info_cmd</text>
</g>
<!-- bita&#45;&gt;bita::info_cmd -->
<g id="edge5" class="edge">
<title>bita&#45;&gt;bita::info_cmd</title>
<path fill="none" stroke="#000000" d="M134.96,-135.32C135.2,-149.1 135.53,-167.96 135.8,-183.64"/>
<polygon fill="#000000" stroke="#000000" points="132.31,-183.95 135.98,-193.89 139.31,-183.83 132.31,-183.95"/>
<text text-anchor="middle" x="122.88" y="-162.48" font-family="monospace" font-size="10.00">owns</text>
</g>
<!-- bita::string_utils -->
<g id="node7" class="node">
<title>bita::string_utils</title>
<polygon fill="#f8c04c" stroke="black" points="0,-49.6 0,-87.6 101,-87.6 101,-49.6 0,-49.6"/>
<text text-anchor="middle" x="50.5" y="-75.6" font-family="monospace" font-size="10.00">pub(crate) mod</text>
<polyline fill="none" stroke="black" points="0,-68.6 101,-68.6 "/>
<text text-anchor="middle" x="50.5" y="-56.6" font-family="monospace" font-size="10.00">string_utils</text>
</g>
<!-- bita&#45;&gt;bita::string_utils -->
<g id="edge6" class="edge">
<title>bita&#45;&gt;bita::string_utils</title>
<path fill="none" stroke="#000000" d="M107.55,-100.88C102.92,-98.27 98.02,-95.49 93.11,-92.71"/>
<polygon fill="#000000" stroke="#000000" points="94.75,-89.62 84.32,-87.74 91.3,-95.71 94.75,-89.62"/>
<text text-anchor="middle" x="87.83" y="-99.8" font-family="monospace" font-size="10.00">owns</text>
</g>
</g>
</svg>
