<?xml version="1.0" encoding="UTF-8" standalone="no"?>
<!DOCTYPE svg PUBLIC "-//W3C//DTD SVG 1.1//EN"
 "http://www.w3.org/Graphics/SVG/1.1/DTD/svg11.dtd">
<!-- Generated by graphviz version 2.43.0 (0)
 -->
<!-- Title: %3 Pages: 1 -->
<svg width="1238pt" height="1169pt"
 viewBox="0.00 0.00 1238.24 1169.19" xmlns="http://www.w3.org/2000/svg" xmlns:xlink="http://www.w3.org/1999/xlink">
<g id="graph0" class="graph" transform="scale(1 1) rotate(0) translate(28.8 1140.39)">
<title>%3</title>
<polygon fill="white" stroke="transparent" points="-28.8,28.8 -28.8,-1140.39 1209.44,-1140.39 1209.44,28.8 -28.8,28.8"/>
<text text-anchor="middle" x="590.32" y="-1078.79" font-family="Helvetica,sans-Serif" font-size="36.00">bitar</text>
<!-- bitar -->
<g id="node1" class="node">
<title>bitar</title>
<polygon fill="#5397c8" stroke="black" points="580.58,-508.75 580.58,-546.75 634.58,-546.75 634.58,-508.75 580.58,-508.75"/>
<text text-anchor="middle" x="607.58" y="-534.75" font-family="monospace" font-size="10.00">crate</text>
<polyline fill="none" stroke="black" points="580.58,-527.75 634.58,-527.75 "/>
<text text-anchor="middle" x="607.58" y="-515.75" font-family="monospace" font-size="10.00">bitar</text>
</g>
<!-- bitar::api -->
<g id="node2" class="node">
<title>bitar::api</title>
<polygon fill="#81c169" stroke="black" points="761.59,-358.47 761.59,-396.47 820.59,-396.47 820.59,-358.47 761.59,-358.47"/>
<text text-anchor="middle" x="791.09" y="-384.47" font-family="monospace" font-size="10.00">pub mod</text>
<polyline fill="none" stroke="black" points="761.59,-377.47 820.59,-377.47 "/>
<text text-anchor="middle" x="791.09" y="-365.47" font-family="monospace" font-size="10.00">api</text>
</g>
<!-- bitar&#45;&gt;bitar::api -->
<g id="edge1" class="edge">
<title>bitar&#45;&gt;bitar::api</title>
<path fill="none" stroke="#000000" d="M630.82,-508.72C663.55,-481.92 723.29,-432.99 759.87,-403.04"/>
<polygon fill="#000000" stroke="#000000" points="762.23,-405.63 767.75,-396.58 757.79,-400.21 762.23,-405.63"/>
<text text-anchor="middle" x="682.85" y="-458.88" font-family="monospace" font-size="10.00">owns</text>
</g>
<!-- bitar::archive -->
<g id="node3" class="node">
<title>bitar::archive</title>
<polygon fill="#f8c04c" stroke="black" points="482.6,-306.16 482.6,-344.16 583.6,-344.16 583.6,-306.16 482.6,-306.16"/>
<text text-anchor="middle" x="533.1" y="-332.16" font-family="monospace" font-size="10.00">pub(crate) mod</text>
<polyline fill="none" stroke="black" points="482.6,-325.16 583.6,-325.16 "/>
<text text-anchor="middle" x="533.1" y="-313.16" font-family="monospace" font-size="10.00">archive</text>
</g>
<!-- bitar&#45;&gt;bitar::archive -->
<g id="edge2" class="edge">
<title>bitar&#45;&gt;bitar::archive</title>
<path fill="none" stroke="#000000" d="M600.58,-508.69C587.46,-473.02 559.14,-395.99 543.69,-353.96"/>
<polygon fill="#000000" stroke="#000000" points="546.88,-352.49 540.14,-344.32 540.31,-354.91 546.88,-352.49"/>
<text text-anchor="middle" x="559.63" y="-434.32" font-family="monospace" font-size="10.00">owns</text>
</g>
<!-- bitar::archive_reader -->
<g id="node4" class="node">
<title>bitar::archive_reader</title>
<polygon fill="#81c169" stroke="black" points="264.52,-448.71 264.52,-486.71 365.52,-486.71 365.52,-448.71 264.52,-448.71"/>
<text text-anchor="middle" x="315.02" y="-474.71" font-family="monospace" font-size="10.00">pub mod</text>
<polyline fill="none" stroke="black" points="264.52,-467.71 365.52,-467.71 "/>
<text text-anchor="middle" x="315.02" y="-455.71" font-family="monospace" font-size="10.00">archive_reader</text>
</g>
<!-- bitar&#45;&gt;bitar::archive_reader -->
<g id="edge3" class="edge">
<title>bitar&#45;&gt;bitar::archive_reader</title>
<path fill="none" stroke="#000000" d="M580.32,-522.16C533.96,-512.64 438.7,-493.09 375.85,-480.2"/>
<polygon fill="#000000" stroke="#000000" points="376.17,-476.69 365.67,-478.11 374.76,-483.55 376.17,-476.69"/>
<text text-anchor="middle" x="465.59" y="-504.18" font-family="monospace" font-size="10.00">owns</text>
</g>
<!-- bitar::chunk -->
<g id="node8" class="node">
<title>bitar::chunk</title>
<polygon fill="#f8c04c" stroke="black" points="620.26,-349.06 620.26,-387.06 721.26,-387.06 721.26,-349.06 620.26,-349.06"/>
<text text-anchor="middle" x="670.76" y="-375.06" font-family="monospace" font-size="10.00">pub(crate) mod</text>
<polyline fill="none" stroke="black" points="620.26,-368.06 721.26,-368.06 "/>
<text text-anchor="middle" x="670.76" y="-356.06" font-family="monospace" font-size="10.00">chunk</text>
</g>
<!-- bitar&#45;&gt;bitar::chunk -->
<g id="edge4" class="edge">
<title>bitar&#45;&gt;bitar::chunk</title>
<path fill="none" stroke="#000000" d="M615.2,-508.49C626.21,-480.67 646.63,-429.06 659.41,-396.75"/>
<polygon fill="#000000" stroke="#000000" points="662.69,-397.97 663.11,-387.39 656.18,-395.4 662.69,-397.97"/>
<text text-anchor="middle" x="624.81" y="-455.62" font-family="monospace" font-size="10.00">owns</text>
</g>
<!-- bitar::chunk_dictionary -->
<g id="node9" class="node">
<title>bitar::chunk_dictionary</title>
<polygon fill="#81c169" stroke="black" points="602.87,-221.94 602.87,-259.94 715.87,-259.94 715.87,-221.94 602.87,-221.94"/>
<text text-anchor="middle" x="659.37" y="-247.94" font-family="monospace" font-size="10.00">pub mod</text>
<polyline fill="none" stroke="black" points="602.87,-240.94 715.87,-240.94 "/>
<text text-anchor="middle" x="659.37" y="-228.94" font-family="monospace" font-size="10.00">chunk_dictionary</text>
</g>
<!-- bitar&#45;&gt;bitar::chunk_dictionary -->
<g id="edge5" class="edge">
<title>bitar&#45;&gt;bitar::chunk_dictionary</title>
<path fill="none" stroke="#000000" d="M611.06,-508.49C619.94,-459.3 643.5,-328.83 654.08,-270.2"/>
<polygon fill="#000000" stroke="#000000" points="657.57,-270.59 655.9,-260.12 650.68,-269.34 657.57,-270.59"/>
<text text-anchor="middle" x="620.07" y="-392.34" font-family="monospace" font-size="10.00">owns</text>
</g>
<!-- bitar::chunk_index -->
<g id="node12" class="node">
<title>bitar::chunk_index</title>
<polygon fill="#f8c04c" stroke="black" points="385.95,-513.71 385.95,-551.71 486.95,-551.71 486.95,-513.71 385.95,-513.71"/>
<text text-anchor="middle" x="436.45" y="-539.71" font-family="monospace" font-size="10.00">pub(crate) mod</text>
<polyline fill="none" stroke="black" points="385.95,-532.71 486.95,-532.71 "/>
<text text-anchor="middle" x="436.45" y="-520.71" font-family="monospace" font-size="10.00">chunk_index</text>
</g>
<!-- bitar&#45;&gt;bitar::chunk_index -->
<g id="edge6" class="edge">
<title>bitar&#45;&gt;bitar::chunk_index</title>
<path fill="none" stroke="#000000" d="M580.47,-528.54C558.22,-529.18 525.88,-530.12 497.48,-530.94"/>
<polygon fill="#000000" stroke="#000000" points="497.12,-527.45 487.22,-531.24 497.32,-534.44 497.12,-527.45"/>
<text text-anchor="middle" x="526.47" y="-532.74" font-family="monospace" font-size="10.00">owns</text>
</g>
<!-- bitar::chunk_location_map -->
<g id="node13" class="node">
<title>bitar::chunk_location_map</title>
<polygon fill="#f8c04c" stroke="black" points="728.81,-469.95 728.81,-507.95 853.81,-507.95 853.81,-469.95 728.81,-469.95"/>
<text text-anchor="middle" x="791.31" y="-495.95" font-family="monospace" font-size="10.00">pub(crate) mod</text>
<polyline fill="none" stroke="black" points="728.81,-488.95 853.81,-488.95 "/>
<text text-anchor="middle" x="791.31" y="-476.95" font-family="monospace" font-size="10.00">chunk_location_map</text>
</g>
<!-- bitar&#45;&gt;bitar::chunk_location_map -->
<g id="edge7" class="edge">
<title>bitar&#45;&gt;bitar::chunk_location_map</title>
<path fill="none" stroke="#000000" d="M634.69,-522.03C656.84,-517.35 689.22,-510.51 718.79,-504.27"/>
<polygon fill="#000000" stroke="#000000" points="719.63,-507.66 728.69,-502.17 718.18,-500.82 719.63,-507.66"/>
<text text-anchor="middle" x="664.24" y="-516.15" font-family="monospace" font-size="10.00">owns</text>
</g>
<!-- bitar::chunk_offset -->
<g id="node14" class="node">
<title>bitar::chunk_offset</title>
<polygon fill="#f8c04c" stroke="black" points="728.66,-618.4 728.66,-656.4 829.66,-656.4 829.66,-618.4 728.66,-618.4"/>
<text text-anchor="middle" x="779.16" y="-644.4" font-family="monospace" font-size="10.00">pub(crate) mod</text>
<polyline fill="none" stroke="black" points="728.66,-637.4 829.66,-637.4 "/>
<text text-anchor="middle" x="779.16" y="-625.4" font-family="monospace" font-size="10.00">chunk_offset</text>
</g>
<!-- bitar&#45;&gt;bitar::chunk_offset -->
<g id="edge8" class="edge">
<title>bitar&#45;&gt;bitar::chunk_offset</title>
<path fill="none" stroke="#000000" d="M634.77,-545.13C663.27,-563.34 708.31,-592.12 740.5,-612.69"/>
<polygon fill="#000000" stroke="#000000" points="738.91,-615.83 749.22,-618.26 742.67,-609.93 738.91,-615.83"/>
<text text-anchor="middle" x="675.14" y="-581.91" font-family="monospace" font-size="10.00">owns</text>
</g>
<!-- bitar::chunker -->
<g id="node15" class="node">
<title>bitar::chunker</title>
<polygon fill="#81c169" stroke="black" points="553.33,-806.71 553.33,-844.71 612.33,-844.71 612.33,-806.71 553.33,-806.71"/>
<text text-anchor="middle" x="582.83" y="-832.71" font-family="monospace" font-size="10.00">pub mod</text>
<polyline fill="none" stroke="black" points="553.33,-825.71 612.33,-825.71 "/>
<text text-anchor="middle" x="582.83" y="-813.71" font-family="monospace" font-size="10.00">chunker</text>
</g>
<!-- bitar&#45;&gt;bitar::chunker -->
<g id="edge9" class="edge">
<title>bitar&#45;&gt;bitar::chunker</title>
<path fill="none" stroke="#000000" d="M606,-546.84C601.79,-597.49 590.32,-735.54 585.27,-796.31"/>
<polygon fill="#000000" stroke="#000000" points="581.78,-796.14 584.44,-806.39 588.75,-796.72 581.78,-796.14"/>
<text text-anchor="middle" x="608.13" y="-674.58" font-family="monospace" font-size="10.00">owns</text>
</g>
<!-- bitar::clone_output -->
<g id="node20" class="node">
<title>bitar::clone_output</title>
<polygon fill="#f8c04c" stroke="black" points="370.93,-633.39 370.93,-671.39 471.93,-671.39 471.93,-633.39 370.93,-633.39"/>
<text text-anchor="middle" x="421.43" y="-659.39" font-family="monospace" font-size="10.00">pub(crate) mod</text>
<polyline fill="none" stroke="black" points="370.93,-652.39 471.93,-652.39 "/>
<text text-anchor="middle" x="421.43" y="-640.39" font-family="monospace" font-size="10.00">clone_output</text>
</g>
<!-- bitar&#45;&gt;bitar::clone_output -->
<g id="edge10" class="edge">
<title>bitar&#45;&gt;bitar::clone_output</title>
<path fill="none" stroke="#000000" d="M580.51,-545.88C548.44,-567.35 494.83,-603.25 458.81,-627.36"/>
<polygon fill="#000000" stroke="#000000" points="456.42,-624.75 450.06,-633.22 460.32,-630.57 456.42,-624.75"/>
<text text-anchor="middle" x="507.16" y="-589.62" font-family="monospace" font-size="10.00">owns</text>
</g>
<!-- bitar::compression -->
<g id="node21" class="node">
<title>bitar::compression</title>
<polygon fill="#f8c04c" stroke="black" points="488.38,-663.81 488.38,-701.81 589.38,-701.81 589.38,-663.81 488.38,-663.81"/>
<text text-anchor="middle" x="538.88" y="-689.81" font-family="monospace" font-size="10.00">pub(crate) mod</text>
<polyline fill="none" stroke="black" points="488.38,-682.81 589.38,-682.81 "/>
<text text-anchor="middle" x="538.88" y="-670.81" font-family="monospace" font-size="10.00">compression</text>
</g>
<!-- bitar&#45;&gt;bitar::compression -->
<g id="edge11" class="edge">
<title>bitar&#45;&gt;bitar::compression</title>
<path fill="none" stroke="#000000" d="M599.16,-546.76C587.26,-573.62 565.44,-622.86 551.58,-654.16"/>
<polygon fill="#000000" stroke="#000000" points="548.23,-653.08 547.38,-663.64 554.63,-655.91 548.23,-653.08"/>
<text text-anchor="middle" x="562.87" y="-603.46" font-family="monospace" font-size="10.00">owns</text>
</g>
<!-- bitar::hashsum -->
<g id="node22" class="node">
<title>bitar::hashsum</title>
<polygon fill="#f8c04c" stroke="black" points="403.81,-364.2 403.81,-402.2 504.81,-402.2 504.81,-364.2 403.81,-364.2"/>
<text text-anchor="middle" x="454.31" y="-390.2" font-family="monospace" font-size="10.00">pub(crate) mod</text>
<polyline fill="none" stroke="black" points="403.81,-383.2 504.81,-383.2 "/>
<text text-anchor="middle" x="454.31" y="-371.2" font-family="monospace" font-size="10.00">hashsum</text>
</g>
<!-- bitar&#45;&gt;bitar::hashsum -->
<g id="edge12" class="edge">
<title>bitar&#45;&gt;bitar::hashsum</title>
<path fill="none" stroke="#000000" d="M587.23,-508.56C560.2,-483.07 512.37,-437.95 482.05,-409.36"/>
<polygon fill="#000000" stroke="#000000" points="484.42,-406.79 474.74,-402.47 479.62,-411.88 484.42,-406.79"/>
<text text-anchor="middle" x="522.14" y="-461.96" font-family="monospace" font-size="10.00">owns</text>
</g>
<!-- bitar::header -->
<g id="node23" class="node">
<title>bitar::header</title>
<polygon fill="#81c169" stroke="black" points="675.92,-683.5 675.92,-721.5 734.92,-721.5 734.92,-683.5 675.92,-683.5"/>
<text text-anchor="middle" x="705.42" y="-709.5" font-family="monospace" font-size="10.00">pub mod</text>
<polyline fill="none" stroke="black" points="675.92,-702.5 734.92,-702.5 "/>
<text text-anchor="middle" x="705.42" y="-690.5" font-family="monospace" font-size="10.00">header</text>
</g>
<!-- bitar&#45;&gt;bitar::header -->
<g id="edge13" class="edge">
<title>bitar&#45;&gt;bitar::header</title>
<path fill="none" stroke="#000000" d="M618.24,-546.78C635.51,-577.64 669.72,-638.73 689.76,-674.53"/>
<polygon fill="#000000" stroke="#000000" points="686.83,-676.47 694.77,-683.49 692.94,-673.05 686.83,-676.47"/>
<text text-anchor="middle" x="641.5" y="-613.66" font-family="monospace" font-size="10.00">owns</text>
</g>
<!-- bitar::rolling_hash -->
<g id="node24" class="node">
<title>bitar::rolling_hash</title>
<polygon fill="#f8c04c" stroke="black" points="847.72,-537.15 847.72,-575.15 948.72,-575.15 948.72,-537.15 847.72,-537.15"/>
<text text-anchor="middle" x="898.22" y="-563.15" font-family="monospace" font-size="10.00">pub(crate) mod</text>
<polyline fill="none" stroke="black" points="847.72,-556.15 948.72,-556.15 "/>
<text text-anchor="middle" x="898.22" y="-544.15" font-family="monospace" font-size="10.00">rolling_hash</text>
</g>
<!-- bitar&#45;&gt;bitar::rolling_hash -->
<g id="edge14" class="edge">
<title>bitar&#45;&gt;bitar::rolling_hash</title>
<path fill="none" stroke="#000000" d="M634.66,-530.4C680.65,-534.89 775.08,-544.12 837.53,-550.22"/>
<polygon fill="#000000" stroke="#000000" points="837.35,-553.72 847.64,-551.21 838.03,-546.76 837.35,-553.72"/>
<text text-anchor="middle" x="723.59" y="-543.31" font-family="monospace" font-size="10.00">owns</text>
</g>
<!-- bitar::archive_reader::http_range_request -->
<g id="node5" class="node">
<title>bitar::archive_reader::http_range_request</title>
<polygon fill="#db5367" stroke="black" points="0,-587.02 0,-625.02 221,-625.02 221,-587.02 0,-587.02"/>
<text text-anchor="middle" x="110.5" y="-613.02" font-family="monospace" font-size="10.00">pub(self) mod</text>
<polyline fill="none" stroke="black" points="0,-606.02 221,-606.02 "/>
<text text-anchor="middle" x="110.5" y="-594.02" font-family="monospace" font-size="10.00">archive_reader::http_range_request</text>
</g>
<!-- bitar::archive_reader&#45;&gt;bitar::archive_reader::http_range_request -->
<g id="edge15" class="edge">
<title>bitar::archive_reader&#45;&gt;bitar::archive_reader::http_range_request</title>
<path fill="none" stroke="#000000" d="M286.59,-486.94C250.18,-511.56 187.05,-554.25 147.1,-581.27"/>
<polygon fill="#000000" stroke="#000000" points="145.02,-578.45 138.7,-586.95 148.94,-584.25 145.02,-578.45"/>
<text text-anchor="middle" x="204.34" y="-537.11" font-family="monospace" font-size="10.00">owns</text>
</g>
<!-- bitar::archive_reader::http_reader -->
<g id="node6" class="node">
<title>bitar::archive_reader::http_reader</title>
<polygon fill="#db5367" stroke="black" points="6.68,-398.69 6.68,-436.69 185.68,-436.69 185.68,-398.69 6.68,-398.69"/>
<text text-anchor="middle" x="96.18" y="-424.69" font-family="monospace" font-size="10.00">pub(self) mod</text>
<polyline fill="none" stroke="black" points="6.68,-417.69 185.68,-417.69 "/>
<text text-anchor="middle" x="96.18" y="-405.69" font-family="monospace" font-size="10.00">archive_reader::http_reader</text>
</g>
<!-- bitar::archive_reader&#45;&gt;bitar::archive_reader::http_reader -->
<g id="edge16" class="edge">
<title>bitar::archive_reader&#45;&gt;bitar::archive_reader::http_reader</title>
<path fill="none" stroke="#000000" d="M264.27,-456.11C241.99,-451.02 215.1,-444.87 189.43,-439.01"/>
<polygon fill="#000000" stroke="#000000" points="190.19,-435.59 179.66,-436.77 188.63,-442.41 190.19,-435.59"/>
<text text-anchor="middle" x="214.35" y="-450.56" font-family="monospace" font-size="10.00">owns</text>
</g>
<!-- bitar::archive_reader::io_reader -->
<g id="node7" class="node">
<title>bitar::archive_reader::io_reader</title>
<polygon fill="#db5367" stroke="black" points="107.73,-231.96 107.73,-269.96 274.73,-269.96 274.73,-231.96 107.73,-231.96"/>
<text text-anchor="middle" x="191.23" y="-257.96" font-family="monospace" font-size="10.00">pub(self) mod</text>
<polyline fill="none" stroke="black" points="107.73,-250.96 274.73,-250.96 "/>
<text text-anchor="middle" x="191.23" y="-238.96" font-family="monospace" font-size="10.00">archive_reader::io_reader</text>
</g>
<!-- bitar::archive_reader&#45;&gt;bitar::archive_reader::io_reader -->
<g id="edge17" class="edge">
<title>bitar::archive_reader&#45;&gt;bitar::archive_reader::io_reader</title>
<path fill="none" stroke="#000000" d="M304.04,-448.48C282.11,-410.08 232.81,-323.77 207.26,-279.03"/>
<polygon fill="#000000" stroke="#000000" points="210.19,-277.1 202.19,-270.15 204.11,-280.57 210.19,-277.1"/>
<text text-anchor="middle" x="243.15" y="-366.76" font-family="monospace" font-size="10.00">owns</text>
</g>
<!-- bitar::chunk_dictionary::chunk_compression -->
<g id="node10" class="node">
<title>bitar::chunk_dictionary::chunk_compression</title>
<polygon fill="#81c169" stroke="black" points="709.8,-49.04 709.8,-87.04 936.8,-87.04 936.8,-49.04 709.8,-49.04"/>
<text text-anchor="middle" x="823.3" y="-75.04" font-family="monospace" font-size="10.00">pub mod</text>
<polyline fill="none" stroke="black" points="709.8,-68.04 936.8,-68.04 "/>
<text text-anchor="middle" x="823.3" y="-56.04" font-family="monospace" font-size="10.00">chunk_dictionary::chunk_compression</text>
</g>
<!-- bitar::chunk_dictionary&#45;&gt;bitar::chunk_dictionary::chunk_compression -->
<g id="edge18" class="edge">
<title>bitar::chunk_dictionary&#45;&gt;bitar::chunk_dictionary::chunk_compression</title>
<path fill="none" stroke="#000000" d="M677.54,-221.78C706.83,-190.88 764.58,-129.97 797.92,-94.8"/>
<polygon fill="#000000" stroke="#000000" points="800.71,-96.96 805.05,-87.29 795.63,-92.14 800.71,-96.96"/>
<text text-anchor="middle" x="725.23" y="-161.29" font-family="monospace" font-size="10.00">owns</text>
</g>
<!-- bitar::chunk_dictionary::chunker_parameters -->
<g id="node11" class="node">
<title>bitar::chunk_dictionary::chunker_parameters</title>
<polygon fill="#81c169" stroke="black" points="461.87,-0.5 461.87,-38.5 694.87,-38.5 694.87,-0.5 461.87,-0.5"/>
<text text-anchor="middle" x="578.37" y="-26.5" font-family="monospace" font-size="10.00">pub mod</text>
<polyline fill="none" stroke="black" points="461.87,-19.5 694.87,-19.5 "/>
<text text-anchor="middle" x="578.37" y="-7.5" font-family="monospace" font-size="10.00">chunk_dictionary::chunker_parameters</text>
</g>
<!-- bitar::chunk_dictionary&#45;&gt;bitar::chunk_dictionary::chunker_parameters -->
<g id="edge19" class="edge">
<title>bitar::chunk_dictionary&#45;&gt;bitar::chunk_dictionary::chunker_parameters</title>
<path fill="none" stroke="#000000" d="M652.32,-221.68C638.04,-182.65 605.64,-94.05 588.87,-48.19"/>
<polygon fill="#000000" stroke="#000000" points="592.07,-46.75 585.34,-38.56 585.49,-49.16 592.07,-46.75"/>
<text text-anchor="middle" x="608.09" y="-137.94" font-family="monospace" font-size="10.00">owns</text>
</g>
<!-- bitar::chunker::config -->
<g id="node16" class="node">
<title>bitar::chunker::config</title>
<polygon fill="#db5367" stroke="black" points="302.64,-925.85 302.64,-963.85 409.64,-963.85 409.64,-925.85 302.64,-925.85"/>
<text text-anchor="middle" x="356.14" y="-951.85" font-family="monospace" font-size="10.00">pub(self) mod</text>
<polyline fill="none" stroke="black" points="302.64,-944.85 409.64,-944.85 "/>
<text text-anchor="middle" x="356.14" y="-932.85" font-family="monospace" font-size="10.00">chunker::config</text>
</g>
<!-- bitar::chunker&#45;&gt;bitar::chunker::config -->
<g id="edge20" class="edge">
<title>bitar::chunker&#45;&gt;bitar::chunker::config</title>
<path fill="none" stroke="#000000" d="M553.2,-841.29C514.57,-861.59 446.65,-897.29 401.52,-921"/>
<polygon fill="#000000" stroke="#000000" points="399.76,-917.98 392.53,-925.73 403.01,-924.17 399.76,-917.98"/>
<text text-anchor="middle" x="464.86" y="-884.15" font-family="monospace" font-size="10.00">owns</text>
</g>
<!-- bitar::chunker::fixed_size -->
<g id="node17" class="node">
<title>bitar::chunker::fixed_size</title>
<polygon fill="#db5367" stroke="black" points="723.97,-958.35 723.97,-996.35 854.97,-996.35 854.97,-958.35 723.97,-958.35"/>
<text text-anchor="middle" x="789.47" y="-984.35" font-family="monospace" font-size="10.00">pub(self) mod</text>
<polyline fill="none" stroke="black" points="723.97,-977.35 854.97,-977.35 "/>
<text text-anchor="middle" x="789.47" y="-965.35" font-family="monospace" font-size="10.00">chunker::fixed_size</text>
</g>
<!-- bitar::chunker&#45;&gt;bitar::chunker::fixed_size -->
<g id="edge21" class="edge">
<title>bitar::chunker&#45;&gt;bitar::chunker::fixed_size</title>
<path fill="none" stroke="#000000" d="M609,-844.91C646.19,-872.2 714.35,-922.22 755.43,-952.36"/>
<polygon fill="#000000" stroke="#000000" points="753.38,-955.2 763.51,-958.3 757.52,-949.56 753.38,-955.2"/>
<text text-anchor="middle" x="669.71" y="-901.64" font-family="monospace" font-size="10.00">owns</text>
</g>
<!-- bitar::chunker::rolling_hash -->
<g id="node18" class="node">
<title>bitar::chunker::rolling_hash</title>
<polygon fill="#db5367" stroke="black" points="577.51,-1025.09 577.51,-1063.09 720.51,-1063.09 720.51,-1025.09 577.51,-1025.09"/>
<text text-anchor="middle" x="649.01" y="-1051.09" font-family="monospace" font-size="10.00">pub(self) mod</text>
<polyline fill="none" stroke="black" points="577.51,-1044.09 720.51,-1044.09 "/>
<text text-anchor="middle" x="649.01" y="-1032.09" font-family="monospace" font-size="10.00">chunker::rolling_hash</text>
</g>
<!-- bitar::chunker&#45;&gt;bitar::chunker::rolling_hash -->
<g id="edge22" class="edge">
<title>bitar::chunker&#45;&gt;bitar::chunker::rolling_hash</title>
<path fill="none" stroke="#000000" d="M588.7,-845.09C600.38,-883.63 626.58,-970.08 640.28,-1015.3"/>
<polygon fill="#000000" stroke="#000000" points="636.99,-1016.51 643.24,-1025.07 643.69,-1014.48 636.99,-1016.51"/>
<text text-anchor="middle" x="601.99" y="-933.19" font-family="monospace" font-size="10.00">owns</text>
</g>
<!-- bitar::chunker::streaming_chunker -->
<g id="node19" class="node">
<title>bitar::chunker::streaming_chunker</title>
<polygon fill="#db5367" stroke="black" points="396.49,-1012.38 396.49,-1050.38 569.49,-1050.38 569.49,-1012.38 396.49,-1012.38"/>
<text text-anchor="middle" x="482.99" y="-1038.38" font-family="monospace" font-size="10.00">pub(self) mod</text>
<polyline fill="none" stroke="black" points="396.49,-1031.38 569.49,-1031.38 "/>
<text text-anchor="middle" x="482.99" y="-1019.38" font-family="monospace" font-size="10.00">chunker::streaming_chunker</text>
</g>
<!-- bitar::chunker&#45;&gt;bitar::chunker::streaming_chunker -->
<g id="edge23" class="edge">
<title>bitar::chunker&#45;&gt;bitar::chunker::streaming_chunker</title>
<path fill="none" stroke="#000000" d="M573.44,-845.06C555.74,-881.52 517.38,-960.53 496.76,-1003.01"/>
<polygon fill="#000000" stroke="#000000" points="493.51,-1001.71 492.29,-1012.23 499.8,-1004.76 493.51,-1001.71"/>
<text text-anchor="middle" x="522.6" y="-927.03" font-family="monospace" font-size="10.00">owns</text>
</g>
<!-- bitar::rolling_hash::buzhash -->
<g id="node25" class="node">
<title>bitar::rolling_hash::buzhash</title>
<polygon fill="#db5367" stroke="black" points="1023.56,-664.57 1023.56,-702.57 1166.56,-702.57 1166.56,-664.57 1023.56,-664.57"/>
<text text-anchor="middle" x="1095.06" y="-690.57" font-family="monospace" font-size="10.00">pub(self) mod</text>
<polyline fill="none" stroke="black" points="1023.56,-683.57 1166.56,-683.57 "/>
<text text-anchor="middle" x="1095.06" y="-671.57" font-family="monospace" font-size="10.00">rolling_hash::buzhash</text>
</g>
<!-- bitar::rolling_hash&#45;&gt;bitar::rolling_hash::buzhash -->
<g id="edge24" class="edge">
<title>bitar::rolling_hash&#45;&gt;bitar::rolling_hash::buzhash</title>
<path fill="none" stroke="#000000" d="M927.69,-575.23C962.04,-597.47 1018.92,-634.29 1056.69,-658.74"/>
<polygon fill="#000000" stroke="#000000" points="1055.09,-661.87 1065.39,-664.37 1058.9,-655.99 1055.09,-661.87"/>
<text text-anchor="middle" x="979.69" y="-619.98" font-family="monospace" font-size="10.00">owns</text>
</g>
<!-- bitar::rolling_hash::rollsum -->
<g id="node26" class="node">
<title>bitar::rolling_hash::rollsum</title>
<polygon fill="#db5367" stroke="black" points="1037.64,-422.86 1037.64,-460.86 1180.64,-460.86 1180.64,-422.86 1037.64,-422.86"/>
<text text-anchor="middle" x="1109.14" y="-448.86" font-family="monospace" font-size="10.00">pub(self) mod</text>
<polyline fill="none" stroke="black" points="1037.64,-441.86 1180.64,-441.86 "/>
<text text-anchor="middle" x="1109.14" y="-429.86" font-family="monospace" font-size="10.00">rolling_hash::rollsum</text>
</g>
<!-- bitar::rolling_hash&#45;&gt;bitar::rolling_hash::rollsum -->
<g id="edge25" class="edge">
<title>bitar::rolling_hash&#45;&gt;bitar::rolling_hash::rollsum</title>
<path fill="none" stroke="#000000" d="M933.53,-537.02C969.68,-517.43 1025.97,-486.93 1065.03,-465.77"/>
<polygon fill="#000000" stroke="#000000" points="1066.95,-468.71 1074.08,-460.86 1063.62,-462.55 1066.95,-468.71"/>
<text text-anchor="middle" x="986.78" y="-504.4" font-family="monospace" font-size="10.00">owns</text>
</g>
</g>
</svg>
